<svg width="92" height="45" viewBox="0 0 92 45" fill="none" xmlns="http://www.w3.org/2000/svg">
<path d="M17.1362 20.5893V0H20.0692V8.57887H32.192V0H35.1249V20.5893H32.192V12.0104H20.0692V20.5893H17.1362Z" fill="#F7F7F7"/>
<path d="M36.3356 20.5893V0H39.2441V20.5893H36.3356Z" fill="#F7F7F7"/>
<path d="M22.4922 44.0664C21.8893 44.0664 21.3353 43.8948 20.8302 43.5517C20.3251 43.2085 19.9259 42.7414 19.6326 42.1504C19.3393 41.5595 19.1926 40.9113 19.1926 40.2059V27.3376C19.1926 26.6322 19.3393 25.984 19.6326 25.393C19.9259 24.8021 20.3251 24.335 20.8302 23.9918C21.3353 23.6487 21.8893 23.4771 22.4922 23.4771H33.4907C34.0936 23.4771 34.6394 23.6487 35.1283 23.9918C35.6334 24.335 36.0326 24.8021 36.3259 25.393C36.6355 25.984 36.7903 26.6322 36.7903 27.3376V40.2059C36.7903 40.9113 36.6355 41.5595 36.3259 42.1504C36.0326 42.7414 35.6334 43.2085 35.1283 43.5517C34.6394 43.8948 34.0936 44.0664 33.4907 44.0664H22.4922ZM22.5655 40.6063H33.3929C33.507 40.6063 33.6048 40.5586 33.6862 40.4633C33.784 40.368 33.8329 40.244 33.8329 40.0915V27.452C33.8329 27.2995 33.784 27.1755 33.6862 27.0802C33.6048 26.9849 33.507 26.9372 33.3929 26.9372H22.5655C22.4515 26.9372 22.3455 26.9849 22.2478 27.0802C22.1663 27.1755 22.1256 27.2995 22.1256 27.452V40.0915C22.1256 40.244 22.1663 40.368 22.2478 40.4633C22.3455 40.5586 22.4515 40.6063 22.5655 40.6063Z" fill="#F7F7F7"/>
<path d="M37.9699 44.0664V23.4771H52.268C52.8709 23.4771 53.4167 23.6487 53.9055 23.9918C54.4107 24.335 54.8099 24.8021 55.1032 25.393C55.4128 25.984 55.5675 26.6322 55.5675 27.3376V40.2059C55.5675 40.9113 55.4128 41.5595 55.1032 42.1504C54.8099 42.7414 54.4107 43.2085 53.9055 43.5517C53.4167 43.8948 52.8709 44.0664 52.268 44.0664H37.9699ZM41.3428 40.6063H52.1702C52.2843 40.6063 52.382 40.5586 52.4635 40.4633C52.5613 40.368 52.6102 40.244 52.6102 40.0915V27.452C52.6102 27.2995 52.5613 27.1755 52.4635 27.0802C52.382 26.9849 52.2843 26.9372 52.1702 26.9372H41.3428C41.2125 26.9372 41.0984 26.9849 41.0006 27.0802C40.9192 27.1755 40.8784 27.2995 40.8784 27.452V40.0915C40.8784 40.244 40.9192 40.368 41.0006 40.4633C41.0984 40.5586 41.2125 40.6063 41.3428 40.6063Z" fill="#F7F7F7"/>
<path fill-rule="evenodd" clip-rule="evenodd" d="M56.9055 44.0378V40.5777H59.8629H73.0611V44.0378H56.9055ZM59.8629 35.4589H73.0611V32.0274H59.8629H56.9055V32.1114V35.4589H59.8629ZM73.0611 26.9087H59.8629H56.9055V23.4485H73.0611V26.9087Z" fill="#F7F7F7"/>
<path fill-rule="evenodd" clip-rule="evenodd" d="M60.797 20.5893V17.1291H63.7544H76.9526V20.5893H60.797ZM76.9526 12.0104H63.7544H60.797V8.57887H63.7544H76.9526V12.0104ZM63.7544 3.46014H76.9526V0H60.797V3.46014H63.7544Z" fill="#F7F7F7"/>
<path fill-rule="evenodd" clip-rule="evenodd" d="M83.0332 36.8733L88.1798 44.0664H91.4793V43.2657L86.8654 36.8636L88.2531 36.8602C88.856 36.8602 89.4019 36.6886 89.8907 36.3454C90.3958 36.0023 90.795 35.5352 91.0883 34.9442C91.3979 34.3532 91.5527 33.7146 91.5527 33.0283V27.3662C91.5527 26.6608 91.3979 26.0222 91.0883 25.4502C90.795 24.8593 90.3958 24.3922 89.8907 24.049C89.4019 23.6868 88.856 23.5057 88.2531 23.5057H73.9551V26.9373H77.3279H88.1553C88.2694 26.9373 88.3672 26.9944 88.4487 27.1088C88.5464 27.2042 88.5953 27.3185 88.5953 27.452V32.8853C88.5953 33.0378 88.5464 33.1617 88.4487 33.257C88.3672 33.3523 88.2694 33.4 88.1553 33.4H77.3279H73.9551V44.0664H76.888V36.8887L83.0332 36.8733Z" fill="#F7F7F7"/>
<path fill-rule="evenodd" clip-rule="evenodd" d="M49.7402 13.3963L54.8868 20.5895H58.1863V19.7888L53.5724 13.3867L54.9601 13.3832C55.563 13.3832 56.1088 13.2116 56.5977 12.8685C57.1028 12.5253 57.502 12.0583 57.7953 11.4673C58.1049 10.8763 58.2596 10.2376 58.2596 9.55132V3.88926C58.2596 3.18388 58.1049 2.54523 57.7953 1.97331C57.502 1.38232 57.1028 0.915247 56.5977 0.572092C56.1088 0.209873 55.563 0.0287622 54.9601 0.0287622H40.662V3.46031H44.0349H54.8623C54.9764 3.46031 55.0742 3.51751 55.1556 3.63189C55.2534 3.72721 55.3023 3.84159 55.3023 3.97504V9.40833C55.3023 9.56085 55.2534 9.68476 55.1556 9.78008C55.0742 9.8754 54.9764 9.92306 54.8623 9.92306H44.0349H40.662V20.5895H43.595V13.4118L49.7402 13.3963Z" fill="#F7F7F7"/>
<path d="M3.44701 44.1967C2.84413 44.1967 2.29013 44.0251 1.78502 43.682C1.2799 43.3388 0.880693 42.8718 0.587399 42.2808C0.294106 41.6898 0.147461 41.0416 0.147461 40.3362V27.4679C0.147461 26.7625 0.294106 26.1144 0.587399 25.5234C0.880693 24.9324 1.2799 24.4653 1.78502 24.1222C2.29013 23.779 2.84413 23.6074 3.44701 23.6074H17.6962V27.0676H3.96028C3.69957 27.0676 3.48775 27.1629 3.32481 27.3535C3.16187 27.5251 3.0804 27.7634 3.0804 28.0684V39.7357C3.0804 40.0407 3.16187 40.2886 3.32481 40.4792C3.48775 40.6508 3.69957 40.7366 3.96028 40.7366H17.6962V44.1967H3.44701Z" fill="#14A800"/>
<path d="M3.44701 44.1967C2.84413 44.1967 2.29013 44.0251 1.78502 43.682C1.2799 43.3388 0.880693 42.8718 0.587399 42.2808C0.294106 41.6898 0.147461 41.0416 0.147461 40.3362V27.4679C0.147461 26.7625 0.294106 26.1144 0.587399 25.5234C0.880693 24.9324 1.2799 24.4653 1.78502 24.1222C2.29013 23.779 2.84413 23.6074 3.44701 23.6074H17.6962V27.0676H3.96028C3.69957 27.0676 3.48775 27.1629 3.32481 27.3535C3.16187 27.5251 3.0804 27.7634 3.0804 28.0684V39.7357C3.0804 40.0407 3.16187 40.2886 3.32481 40.4792C3.48775 40.6508 3.69957 40.7366 3.96028 40.7366H17.6962V44.1967H3.44701Z" fill="#14A800"/>
</svg>
