<svg width="328" height="160" viewBox="0 0 328 160" fill="none" xmlns="http://www.w3.org/2000/svg">
<path d="M59.4986 74.5602V0.272095H70.0809V31.2255H113.821V0.272095H124.403V74.5602H113.821V43.6068H70.0809V74.5602H59.4986Z" fill="white"/>
<path d="M128.772 74.5602V0.272095H139.266V74.5602H128.772Z" fill="white"/>
<path d="M11.9447 159.165C9.7694 159.165 7.77052 158.546 5.94801 157.307C4.1255 156.069 2.68513 154.384 1.6269 152.252C0.568666 150.119 0.0395508 147.781 0.0395508 145.236V98.8055C0.0395508 96.2605 0.568666 93.9218 1.6269 91.7894C2.68513 89.6571 4.1255 87.9719 5.94801 86.7337C7.77052 85.4956 9.7694 84.8765 11.9447 84.8765H63.3571V97.3611H13.7966C12.8559 97.3611 12.0916 97.705 11.5037 98.3928C10.9158 99.0119 10.6219 99.8717 10.6219 100.972V143.069C10.6219 144.169 10.9158 145.064 11.5037 145.752C12.0916 146.371 12.8559 146.68 13.7966 146.68H63.3571V159.165H11.9447Z" fill="white"/>
<path d="M78.8234 159.268C76.6482 159.268 74.6493 158.649 72.8268 157.411C71.0043 156.173 69.5639 154.487 68.5057 152.355C67.4474 150.223 66.9183 147.884 66.9183 145.339V98.9087C66.9183 96.3637 67.4474 94.025 68.5057 91.8926C69.5639 89.7603 71.0043 88.075 72.8268 86.8369C74.6493 85.5988 76.6482 84.9797 78.8234 84.9797H118.507C120.682 84.9797 122.652 85.5988 124.416 86.8369C126.238 88.075 127.678 89.7603 128.737 91.8926C129.854 94.025 130.412 96.3637 130.412 98.9087V145.339C130.412 147.884 129.854 150.223 128.737 152.355C127.678 154.487 126.238 156.173 124.416 157.411C122.652 158.649 120.682 159.268 118.507 159.268H78.8234ZM79.088 146.783H118.154C118.566 146.783 118.919 146.611 119.213 146.267C119.565 145.924 119.742 145.476 119.742 144.926V99.3214C119.742 98.7711 119.565 98.324 119.213 97.9801C118.919 97.6362 118.566 97.4642 118.154 97.4642H79.088C78.6765 97.4642 78.2943 97.6362 77.9416 97.9801C77.6476 98.324 77.5006 98.7711 77.5006 99.3214V144.926C77.5006 145.476 77.6476 145.924 77.9416 146.267C78.2943 146.611 78.6765 146.783 79.088 146.783Z" fill="white"/>
<path d="M134.669 159.268V84.9797H186.257C188.433 84.9797 190.402 85.5988 192.166 86.8369C193.988 88.075 195.429 89.7603 196.487 91.8926C197.604 94.025 198.162 96.3637 198.162 98.9087V145.339C198.162 147.884 197.604 150.223 196.487 152.355C195.429 154.487 193.988 156.173 192.166 157.411C190.402 158.649 188.433 159.268 186.257 159.268H134.669ZM146.838 146.783H185.905C186.316 146.783 186.669 146.611 186.963 146.267C187.316 145.924 187.492 145.476 187.492 144.926V99.3214C187.492 98.7711 187.316 98.324 186.963 97.9801C186.669 97.6362 186.316 97.4642 185.905 97.4642H146.838C146.368 97.4642 145.956 97.6362 145.604 97.9801C145.31 98.324 145.163 98.7711 145.163 99.3214V144.926C145.163 145.476 145.31 145.924 145.604 146.267C145.956 146.611 146.368 146.783 146.838 146.783Z" fill="white"/>
<path fill-rule="evenodd" clip-rule="evenodd" d="M202.99 159.165V146.68H213.66H261.281V159.165H202.99ZM213.66 128.211H261.281V115.83H213.66H202.99V116.133V128.211H213.66ZM261.281 97.3611H213.66H202.99V84.8765H261.281V97.3611Z" fill="white"/>
<path fill-rule="evenodd" clip-rule="evenodd" d="M217.031 74.5602V62.0757H227.701H275.322V74.5602H217.031ZM275.322 43.6068H227.701H217.031V31.2255H227.701H275.322V43.6068ZM227.701 12.7566H275.322V0.272095H217.031V12.7566H227.701Z" fill="white"/>
<path fill-rule="evenodd" clip-rule="evenodd" d="M297.261 133.314L315.831 159.268H327.736V156.379L311.088 133.28L316.095 133.267C318.27 133.267 320.24 132.648 322.004 131.41C323.826 130.172 325.266 128.486 326.325 126.354C327.442 124.222 328 121.917 328 119.441V99.0119C328 96.4669 327.442 94.1625 326.325 92.099C325.266 89.9666 323.826 88.2814 322.004 87.0433C320.24 85.7364 318.27 85.0829 316.095 85.0829H264.506V97.4642H276.676H315.742C316.154 97.4642 316.507 97.6706 316.801 98.0833C317.153 98.4272 317.33 98.8399 317.33 99.3214V118.925C317.33 119.476 317.153 119.923 316.801 120.267C316.507 120.611 316.154 120.782 315.742 120.782H276.676H264.506V159.268H275.089V133.37L297.261 133.314Z" fill="white"/>
<path fill-rule="evenodd" clip-rule="evenodd" d="M177.137 48.6074L195.706 74.5608H207.611V71.6719L190.964 48.5726L195.971 48.56C198.146 48.56 200.115 47.9409 201.879 46.7028C203.702 45.4647 205.142 43.7794 206.2 41.6471C207.317 39.5147 207.876 37.2104 207.876 34.7341V14.3049C207.876 11.7598 207.317 9.45553 206.2 7.39197C205.142 5.25963 203.702 3.57439 201.879 2.33626C200.115 1.02934 198.146 0.375872 195.971 0.375872H144.382V12.7572H156.552H195.618C196.03 12.7572 196.382 12.9636 196.676 13.3763C197.029 13.7202 197.205 14.1329 197.205 14.6144V34.2183C197.205 34.7685 197.029 35.2156 196.676 35.5596C196.382 35.9035 196.03 36.0755 195.618 36.0755H156.552H144.382V74.5608H154.964V48.6632L177.137 48.6074Z" fill="white"/>
</svg>
